<svg width="30" height="21" viewBox="0 0 30 21" fill="none" xmlns="http://www.w3.org/2000/svg">
<path d="M7.46349 16.284C8.52647 16.284 9.56118 16.4027 10.5676 16.6402C11.5741 16.8777 12.5748 17.2339 13.57 17.7088V4.34239C12.6427 3.79959 11.6589 3.39249 10.6185 3.12109C9.57814 2.84969 8.52647 2.71399 7.46349 2.71399C6.64929 2.71399 5.84074 2.79315 5.03785 2.95147C4.23496 3.10979 3.46034 3.34726 2.71399 3.66389V17.0982C3.50558 16.8268 4.2915 16.6232 5.07178 16.4875C5.85205 16.3518 6.64929 16.284 7.46349 16.284ZM16.284 17.7088C17.2791 17.2339 18.2799 16.8777 19.2863 16.6402C20.2928 16.4027 21.3275 16.284 22.3905 16.284C23.2047 16.284 24.0019 16.3518 24.7822 16.4875C25.5624 16.6232 26.3484 16.8268 27.1399 17.0982V3.66389C26.3936 3.34726 25.619 3.10979 24.8161 2.95147C24.0132 2.79315 23.2047 2.71399 22.3905 2.71399C21.3275 2.71399 20.2758 2.84969 19.2354 3.12109C18.1951 3.39249 17.2113 3.79959 16.284 4.34239V17.7088ZM14.927 20.9995C14.6103 20.9995 14.3107 20.96 14.028 20.8808C13.7453 20.8016 13.4795 20.6942 13.2307 20.5585C12.3487 20.0383 11.4214 19.6482 10.4489 19.3881C9.47637 19.128 8.48123 18.998 7.46349 18.998C6.51359 18.998 5.58065 19.1224 4.66468 19.3711C3.74871 19.6199 2.87231 19.9705 2.0355 20.4228C1.56055 20.6716 1.10256 20.6603 0.661536 20.3889C0.220512 20.1175 0 19.7217 0 19.2015V2.84969C0 2.60091 0.0621957 2.36344 0.186587 2.13727C0.310979 1.9111 0.497566 1.74148 0.746349 1.6284C1.78671 1.0856 2.87231 0.678499 4.00314 0.407099C5.13397 0.1357 6.28742 0 7.46349 0C8.77525 0 10.0587 0.169625 11.314 0.508874C12.5692 0.848123 13.7735 1.357 14.927 2.0355C16.0804 1.357 17.2848 0.848123 18.54 0.508874C19.7952 0.169625 21.0787 0 22.3905 0C23.5665 0 24.72 0.1357 25.8508 0.407099C26.9816 0.678499 28.0672 1.0856 29.1076 1.6284C29.3564 1.74148 29.543 1.9111 29.6674 2.13727C29.7917 2.36344 29.8539 2.60091 29.8539 2.84969V19.2015C29.8539 19.7217 29.6334 20.1175 29.1924 20.3889C28.7514 20.6603 28.2934 20.6716 27.8184 20.4228C26.9816 19.9705 26.1052 19.6199 25.1893 19.3711C24.2733 19.1224 23.3404 18.998 22.3905 18.998C21.3727 18.998 20.3776 19.128 19.4051 19.3881C18.4325 19.6482 17.5053 20.0383 16.6232 20.5585C16.3744 20.6942 16.1087 20.8016 15.826 20.8808C15.5433 20.96 15.2436 20.9995 14.927 20.9995ZM17.641 6.47966C17.641 6.27611 17.7145 6.06691 17.8615 5.85205C18.0085 5.63719 18.1725 5.49584 18.3534 5.42799C19.0093 5.20182 19.6652 5.0322 20.321 4.91912C20.9769 4.80603 21.6667 4.74949 22.3905 4.74949C22.8428 4.74949 23.2895 4.77776 23.7305 4.8343C24.1715 4.89084 24.6069 4.96435 25.0366 5.05482C25.2402 5.10005 25.4154 5.21313 25.5624 5.39406C25.7094 5.575 25.783 5.77855 25.783 6.00471C25.783 6.3892 25.6586 6.6719 25.4098 6.85284C25.161 7.03377 24.8444 7.079 24.4599 6.98854C24.1432 6.92069 23.8097 6.8698 23.4591 6.83587C23.1085 6.80195 22.7523 6.78499 22.3905 6.78499C21.8024 6.78499 21.2257 6.84153 20.6603 6.95461C20.0949 7.06769 19.5521 7.2147 19.0319 7.39564C18.6248 7.55395 18.2912 7.54264 18.0311 7.36171C17.771 7.18078 17.641 6.88676 17.641 6.47966ZM17.641 13.9431C17.641 13.7396 17.7145 13.5304 17.8615 13.3155C18.0085 13.1007 18.1725 12.9593 18.3534 12.8915C19.0093 12.6653 19.6652 12.4957 20.321 12.3826C20.9769 12.2695 21.6667 12.213 22.3905 12.213C22.8428 12.213 23.2895 12.2412 23.7305 12.2978C24.1715 12.3543 24.6069 12.4278 25.0366 12.5183C25.2402 12.5635 25.4154 12.6766 25.5624 12.8576C25.7094 13.0385 25.783 13.242 25.783 13.4682C25.783 13.8527 25.6586 14.1354 25.4098 14.3163C25.161 14.4973 24.8444 14.5425 24.4599 14.452C24.1432 14.3842 23.8097 14.3333 23.4591 14.2994C23.1085 14.2654 22.7523 14.2485 22.3905 14.2485C21.8024 14.2485 21.2257 14.2994 20.6603 14.4011C20.0949 14.5029 19.5521 14.6443 19.0319 14.8252C18.6248 14.9835 18.2912 14.9779 18.0311 14.8082C17.771 14.6386 17.641 14.3502 17.641 13.9431ZM17.641 10.2114C17.641 10.0079 17.7145 9.79865 17.8615 9.58379C18.0085 9.36894 18.1725 9.22758 18.3534 9.15973C19.0093 8.93357 19.6652 8.76394 20.321 8.65086C20.9769 8.53778 21.6667 8.48123 22.3905 8.48123C22.8428 8.48123 23.2895 8.5095 23.7305 8.56605C24.1715 8.62259 24.6069 8.69609 25.0366 8.78656C25.2402 8.83179 25.4154 8.94487 25.5624 9.12581C25.7094 9.30674 25.783 9.51029 25.783 9.73646C25.783 10.1209 25.6586 10.4036 25.4098 10.5846C25.161 10.7655 24.8444 10.8107 24.4599 10.7203C24.1432 10.6524 23.8097 10.6015 23.4591 10.5676C23.1085 10.5337 22.7523 10.5167 22.3905 10.5167C21.8024 10.5167 21.2257 10.5733 20.6603 10.6864C20.0949 10.7994 19.5521 10.9464 19.0319 11.1274C18.6248 11.2857 18.2912 11.2744 18.0311 11.0935C17.771 10.9125 17.641 10.6185 17.641 10.2114Z" fill="#F3FBFF"/>
</svg>
